Coordinates
version=1
nRows=16
nColumns=22
inDegrees=yes

Units are S.I. units (second, meters, Newtons, ...)
If the header above contains a line with 'inDegrees', this indicates whether rotational values are in degrees (yes) or radians (no).

endheader
time	pelvis_tilt	pelvis_list	pelvis_rotation	pelvis_tx	pelvis_ty	pelvis_tz	hip_flexion_r	hip_adduction_r	hip_rotation_r	knee_angle_r	ankle_angle_r	subtalar_angle_r	hip_flexion_l	hip_adduction_l	hip_rotation_l	knee_angle_l	ankle_angle_l	subtalar_angle_l	lumbar_extension	lumbar_bending	lumbar_rotation
      1.27000000	     -5.35508002	     -2.41916872	      0.36444329	     -1.16851136	      0.95808914	     -0.07854946	      7.19590258	      1.04096238	     -6.30723836	    -10.60017810	     10.13180183	      0.81717479	      8.00351149	     -4.35483939	     -6.17440087	    -13.92569832	     10.56000648	     -2.11213103	     -2.82703361	      0.62852830	     -0.58551125
      1.28000000	     -5.39098731	     -2.45685811	      0.43628434	     -1.16786922	      0.95797593	     -0.07910576	      7.15255209	      1.03327874	     -6.34813511	    -10.55256541	     10.17128661	      0.96083603	      8.23325317	     -4.36887936	     -6.06358095	    -14.31890461	     10.68455432	     -2.14299170	     -2.83922722	      0.67368586	     -0.59797002
      1.29000000	     -5.41042086	     -2.49654587	      0.49916490	     -1.16716159	      0.95787144	     -0.07969059	      7.08618248	      1.02779994	     -6.37925018	    -10.50229900	     10.22619119	      1.07771297	      8.44759984	     -4.38492161	     -5.96238308	    -14.72653303	     10.81924780	     -2.17886356	     -2.86600124	      0.72057155	     -0.59335696
      1.30000000	     -5.42551678	     -2.54298383	      0.56197891	     -1.16643436	      0.95775784	     -0.08033683	      7.02191163	      1.02572758	     -6.40950957	    -10.46668535	     10.27978136	      1.20220276	      8.66865545	     -4.40395574	     -5.85143079	    -15.15722813	     10.95947633	     -2.21085699	     -2.90139312	      0.77846039	     -0.57706669
      1.31000000	     -5.42299640	     -2.58861829	      0.61465407	     -1.16565094	      0.95765419	     -0.08102599	      6.93802799	      1.02110271	     -6.42988075	    -10.43574927	     10.34791673	      1.30927427	      8.86712213	     -4.41989473	     -5.75068432	    -15.59064579	     11.10063219	     -2.24048927	     -2.95373623	      0.83568152	     -0.53709308
      1.32000000	     -5.42968278	     -2.64405437	      0.67046841	     -1.16487186	      0.95752177	     -0.08178664	      6.88084903	      1.02007873	     -6.46257283	    -10.43551388	     10.39801170	      1.48182866	      9.08104472	     -4.44030610	     -5.62943331	    -16.03229737	     11.24269613	     -2.24839580	     -3.00190630	      0.90863425	     -0.49296648
      1.33000000	     -5.39027308	     -2.67430886	      0.69926250	     -1.16400940	      0.95744030	     -0.08257059	      6.76443491	      0.99476987	     -6.45303385	    -10.42465063	     10.50075840	      1.53430328	      9.21479905	     -4.43501472	     -5.56815486	    -16.43715860	     11.36461840	     -2.27907058	     -3.10049511	      0.95193968	     -0.41793547
      1.34000000	     -5.37682949	     -2.75031691	      0.73595778	     -1.16310120	      0.95729520	     -0.08340891	      6.67859504	      1.01216071	     -6.51904483	    -10.42113455	     10.58504398	      1.67904781	      9.37177653	     -4.47397405	     -5.47698167	    -16.83792478	     11.54991083	     -2.29662831	     -3.16295999	      1.04553540	     -0.31230948
      1.35000000	     -5.36793132	     -2.80373322	      0.76490762	     -1.16222231	      0.95714190	     -0.08432123	      6.63047755	      0.99570390	     -6.55865440	    -10.47562547	     10.66479496	      1.96071388	      9.52143116	     -4.48258207	     -5.39410328	    -17.21624783	     11.69811691	     -2.26173142	     -3.23091511	      1.11943496	     -0.22042957
      1.36000000	     -5.32335512	     -2.83711435	      0.76314984	     -1.16124277	      0.95702587	     -0.08524177	      6.54516025	      0.96092035	     -6.57797008	    -10.53775753	     10.78676044	      2.01743749	      9.58428181	     -4.47133667	     -5.36909361	    -17.53178028	     11.83043386	     -2.28974417	     -3.33263217	      1.16639315	     -0.09062062
      1.37000000	     -5.28143719	     -2.87540642	      0.76290227	     -1.16025287	      0.95689453	     -0.08624575	      6.48884990	      0.92394401	     -6.59905045	    -10.64768405	     10.89259297	      2.09374616	      9.63099639	     -4.45906897	     -5.34900253	    -17.81519259	     11.97697121	     -2.31242966	     -3.43639352	      1.22558394	      0.04089732
      1.38000000	     -5.25747986	     -2.90892374	      0.74582555	     -1.15916882	      0.95672971	     -0.08727988	      6.45973838	      0.87717957	     -6.63565334	    -10.77654707	     11.02794406	      2.28697394	      9.66566598	     -4.43994793	     -5.35052431	    -18.06181315	     12.14579820	     -2.30530820	     -3.50679069	      1.27362820	      0.20336559
      1.39000000	     -5.21080595	     -2.93171276	      0.73428700	     -1.15809748	      0.95659877	     -0.08840954	      6.45825985	      0.81215333	     -6.63315743	    -10.99843385	     11.12636903	      2.35679402	      9.65262050	     -4.39846234	     -5.33469952	    -18.26551824	     12.27504873	     -2.32421654	     -3.61373111	      1.31812225	      0.32086870
      1.40000000	     -5.17043445	     -2.94214942	      0.71824309	     -1.15694709	      0.95644376	     -0.08960706	      6.48161861	      0.72904994	     -6.63336960	    -11.25643097	     11.26063946	      2.43449830	      9.62130849	     -4.33906302	     -5.33560135	    -18.43783836	     12.42462599	     -2.34752189	     -3.70520387	      1.34857655	      0.45151163
      1.41000000	     -5.13023590	     -2.94025362	      0.70964525	     -1.15574708	      0.95628029	     -0.09090096	      6.53863938	      0.62576538	     -6.62276614	    -11.57845808	     11.40550941	      2.50512016	      9.57208912	     -4.25681293	     -5.32740029	    -18.58369090	     12.57030977	     -2.37477964	     -3.79387013	      1.36813965	      0.57002038
      1.42000000	     -5.11321518	     -2.90487155	      0.70692249	     -1.15453729	      0.95607020	     -0.09229622	      6.66850640	      0.47701603	     -6.58455875	    -11.98712001	     11.59041533	      2.65413916	      9.54233761	     -4.12958700	     -5.31295846	    -18.72183816	     12.67462809	     -2.39941937	     -3.85834843	      1.35324005	      0.66033072
